<?xml version="1.0" encoding="utf-8"?>
<!-- Svg Vector Icons : http://www.onlinewebfonts.com/icon -->
<!DOCTYPE svg PUBLIC "-//W3C//DTD SVG 1.1//EN" "http://www.w3.org/Graphics/SVG/1.1/DTD/svg11.dtd">
<svg version="1.1" xmlns="http://www.w3.org/2000/svg" xmlns:xlink="http://www.w3.org/1999/xlink" x="0px" y="0px" viewBox="0 0 1000 1000" enable-background="new 0 0 1000 1000" xml:space="preserve">
<metadata> Svg Vector Icons : http://www.onlinewebfonts.com/icon </metadata>
<g><g transform="translate(0.000000,511.000000) scale(0.100000,-0.100000)"><path d="M4562,4997.2c-32.4-4.6-150.3-20.8-265.9-34.7c-654.3-80.9-1421.8-372.2-1988.3-751.4C906.9,3272.5,100,1774.4,100,109.8c0-2397.5,1697-4413.5,4069-4834.3c388.4-69.4,1031.1-85.5,1428.8-34.7C7764.1-4481.7,9431-2902.7,9835.6-745.6c69.4,381.5,85.5,1042.7,34.7,1451.9C9713,1940.8,9130.4,3034.4,8208,3822.7c-920.2,788.4-2029.9,1195.3-3225.2,1186C4784,5006.4,4594.4,5001.8,4562,4997.2z M5646.4,4675.9c1893.5-270.5,3437.8-1694.6,3849.4-3551.2c92.5-425.4,113.3-672.8,99.4-1172.1c-9.3-365.3-25.4-513.3-74-744.5c-302.9-1442.7-1197.6-2605.6-2496.9-3236.7c-670.5-326-1264.6-462.4-2023-462.4c-751.4,0-1359.4,138.7-2022.9,462.4C1577.3-3348.9,617.9-1998.7,423.7-445.1C389-165.4,395.9,449.6,435.2,729.4c291.3,2050.7,1872.7,3648.3,3902.6,3944.2C4631.4,4717.5,5348.1,4717.5,5646.4,4675.9z"/><path d="M3521.7,2618.2c-538.7-189.6-1384.8-656.6-1627.6-901.7c-80.9-78.6-113.3-175.7-90.2-268.2c30.1-129.5,504-1100.5,568.7-1169.8c39.3-41.6,104-80.9,143.3-90.2c39.3-6.9,210.4,13.9,381.5,46.2c171.1,32.4,323.7,60.1,339.9,60.1c23.1,0,30.1-307.5,34.7-1426.5c6.9-1315.5,9.2-1435.7,48.5-1502.8c90.2-166.5-4.6-157.2,1669.2-157.2c1394.1,0,1507.4,2.3,1576.7,41.6c150.3,80.9,145.6,27.8,145.6,1611.4c0,1359.4,2.3,1433.4,41.6,1433.4c23.1,0,180.3-27.7,351.4-60.1c346.8-64.7,425.4-60.1,515.6,32.4c60.1,62.4,550.2,1065.8,580.3,1188.3c20.8,90.2-32.4,198.8-148,305.2c-268.2,242.8-1024.2,658.9-1535.1,846.2c-326,120.2-397.6,129.5-490.1,74c-62.4-39.3-78.6-71.7-122.6-249.7c-64.7-261.2-182.6-510.9-286.7-615c-43.9-46.2-143.3-113.3-217.3-148c-124.8-62.4-154.9-67-400-67c-258.9,0-270.5,2.3-411.5,78.6c-78.6,43.9-178,115.6-217.3,161.8c-97.1,108.7-191.9,319.1-252,557.2c-55.5,222-136.4,323.7-247.4,321.4C3838.4,2719.9,3681.2,2673.7,3521.7,2618.2z M3854.6,2243.7c164.2-619.6,571.1-954.8,1158.3-954.8c582.6,0,954.8,307.5,1144.4,943.3c27.8,90.2,53.2,166.5,57.8,166.5c27.7,0,381.5-136.4,571.1-219.6c330.6-148,809.2-430,1086.6-645c39.3-27.7,23.1-67-191.9-524.8c-127.2-272.8-240.5-504-249.7-513.2c-11.6-11.6-208.1,18.5-441.6,62.4c-427.7,83.2-485.5,83.2-536.4,4.6c-9.2-13.9-18.5-709.8-18.5-1546.7v-1519l-1426.5,4.6l-1428.8,6.9l-11.6,1537.4l-11.6,1537.4l-57.8,25.4c-48.5,23.1-134.1,13.9-483.2-50.9c-233.5-46.2-432.3-74-441.6-62.4c-46.2,55.5-464.7,982.6-455.5,1010.3c23.1,60.1,568.7,404.6,901.7,568.7c261.3,129.5,712.1,316.7,779.1,323.7C3806,2398.6,3831.5,2329.2,3854.6,2243.7z"/></g></g>
</svg>